<svg width="148" height="148" viewBox="0 0 148 148" fill="none" xmlns="http://www.w3.org/2000/svg">
<path d="M69.5285 53.0891H59.358V95H69.5285V53.0891Z" stroke="black" stroke-width="2" stroke-miterlimit="10"/>
<path d="M76.1485 53.0891H65.9779V95H76.1485V53.0891Z" stroke="black" stroke-width="2" stroke-miterlimit="10"/>
<path d="M69.5285 53.0891H59.358V95H69.5285V53.0891Z" fill="black"/>
<path d="M91.1555 53H80.9849V95H91.1555V53Z" stroke="black" stroke-width="2" stroke-miterlimit="10"/>
<path d="M24.9555 53.0885C37.6314 53.0885 47.9015 62.4689 47.9015 74.0403C47.9015 85.6116 37.6314 94.9994 24.9555 94.9994C12.2796 94.9994 2.00952 85.619 2.00952 74.0403C2.00952 62.4689 12.2796 53.0885 24.9555 53.0885Z" fill="black"/>
<path d="M24.9555 94.9998C37.6283 94.9998 47.9015 85.6161 47.9015 74.0407C47.9015 62.4653 37.6283 53.0815 24.9555 53.0815C12.2828 53.0815 2.00952 62.4653 2.00952 74.0407C2.00952 85.6161 12.2828 94.9998 24.9555 94.9998Z" stroke="black" stroke-width="2" stroke-miterlimit="10"/>
<path d="M31.5755 53.0884C44.2514 53.0884 54.5215 62.4688 54.5215 74.0401C54.5215 85.6115 44.2514 94.9993 31.5755 94.9993C18.8996 94.9993 8.62952 85.6189 8.62952 74.0401C8.62952 62.4688 18.8996 53.0884 31.5755 53.0884Z" fill="white"/>
<path d="M31.5755 94.9993C44.2483 94.9993 54.5215 85.6156 54.5215 74.0402C54.5215 62.4648 44.2483 53.0811 31.5755 53.0811C18.9028 53.0811 8.62952 62.4648 8.62952 74.0402C8.62952 85.6156 18.9028 94.9993 31.5755 94.9993Z" stroke="black" stroke-width="2" stroke-miterlimit="10"/>
<path d="M101.965 53.3936V94.6509L137.985 72.8822L101.965 53.3936Z" stroke="black" stroke-width="2" stroke-miterlimit="10"/>
<path d="M101.965 53.3936V94.6509L137.985 72.8822L101.965 53.3936Z" fill="black"/>
<path d="M108.585 53.3936V94.6509L144.605 72.8822L108.585 53.3936Z" fill="white"/>
<path d="M108.585 53.3936V94.6509L144.605 72.8822L108.585 53.3936Z" stroke="black" stroke-width="2" stroke-miterlimit="10"/>
<path d="M91.1554 53H80.9849V95H91.1554V53Z" fill="black"/>
<path d="M76.1484 53.0891H65.9778V95H76.1484V53.0891Z" fill="white"/>
<path d="M97.4352 53H87.2646V94.9108H97.4352V53Z" stroke="black" stroke-width="2" stroke-miterlimit="10"/>
<path d="M97.4352 53H87.2646V94.9108H97.4352V53Z" fill="white"/>
</svg>
