<svg width="148" height="148" viewBox="0 0 148 148" fill="none" xmlns="http://www.w3.org/2000/svg">
<path d="M71.2688 59.0618H63.9979V88.139H71.2688V59.0618Z" stroke="black" stroke-width="2" stroke-miterlimit="10"/>
<path d="M76.0013 59.0618H68.7305V88.139H76.0013V59.0618Z" stroke="black" stroke-width="2" stroke-miterlimit="10"/>
<path d="M71.2688 59.0618H63.9979V88.139H71.2688V59.0618Z" fill="black"/>
<path d="M86.7297 59H79.4589V88.139H86.7297V59Z" stroke="black" stroke-width="2" stroke-miterlimit="10"/>
<path d="M39.4039 59.0618C48.4658 59.0618 55.8078 65.5697 55.8078 73.5978C55.8078 81.6258 48.4658 88.1389 39.4039 88.1389C30.342 88.1389 23 81.6309 23 73.5978C23 65.5697 30.342 59.0618 39.4039 59.0618Z" fill="black"/>
<path d="M39.4039 88.139C48.4636 88.139 55.8078 81.6287 55.8078 73.5978C55.8078 65.567 48.4636 59.0567 39.4039 59.0567C30.3443 59.0567 23 65.567 23 73.5978C23 81.6287 30.3443 88.139 39.4039 88.139Z" stroke="black" stroke-width="2" stroke-miterlimit="10"/>
<path d="M44.1365 59.0613C53.1984 59.0613 60.5404 65.5693 60.5404 73.5973C60.5404 81.6254 53.1984 88.1385 44.1365 88.1385C35.0746 88.1385 27.7325 81.6305 27.7325 73.5973C27.7325 65.5693 35.0746 59.0613 44.1365 59.0613Z" fill="white"/>
<path d="M44.1365 88.1385C53.1961 88.1385 60.5404 81.6282 60.5404 73.5974C60.5404 65.5665 53.1961 59.0562 44.1365 59.0562C35.0768 59.0562 27.7325 65.5665 27.7325 73.5974C27.7325 81.6282 35.0768 88.1385 44.1365 88.1385Z" stroke="black" stroke-width="2" stroke-miterlimit="10"/>
<path d="M94.4573 59.2731V87.8968L120.208 72.794L94.4573 59.2731Z" stroke="black" stroke-width="2" stroke-miterlimit="10"/>
<path d="M94.4573 59.2731V87.8968L120.208 72.794L94.4573 59.2731Z" fill="black"/>
<path d="M99.1898 59.2731V87.8968L124.94 72.794L99.1898 59.2731Z" fill="white"/>
<path d="M99.1898 59.2731V87.8968L124.94 72.794L99.1898 59.2731Z" stroke="black" stroke-width="2" stroke-miterlimit="10"/>
<path d="M86.7297 59H79.4589V88.139H86.7297V59Z" fill="black"/>
<path d="M76.0013 59.0618H68.7305V88.139H76.0013V59.0618Z" fill="white"/>
<path d="M91.2191 59H83.9482V88.0771H91.2191V59Z" stroke="black" stroke-width="2" stroke-miterlimit="10"/>
<path d="M91.2191 59H83.9482V88.0771H91.2191V59Z" fill="white"/>
</svg>
